<svg width="76" height="80" viewBox="0 0 76 80" fill="none" xmlns="http://www.w3.org/2000/svg">
<path d="M72.1735 21.835C66 8.90696 53.0169 0 38.0024 0C17.0169 0 0 17.3926 0 38.8506C0 60.3086 17.0169 77.7012 38.0024 77.7012C46.5542 77.7012 54.4482 74.8184 60.7952 69.9325C63.7807 67.6411 66.4193 64.9136 68.6313 61.8387C66.9253 65.5345 64.8362 69.0234 62.4289 72.2387C64.1205 74.7224 65.6747 77.3094 67.0771 80C72.8024 67.5081 75.9976 53.56 75.9976 38.8506C76.0048 32.7525 74.6313 26.9796 72.1735 21.835ZM30.4048 38.9023C30.4048 41.0459 28.7855 42.7017 26.6024 42.7017C24.4193 42.7017 22.8 41.0459 22.8 38.9023V38.8136C22.8 36.6701 24.4193 35.0143 26.6024 35.0143C28.7855 35.0143 30.4048 36.6701 30.4048 38.8136V38.9023ZM41.8048 38.9023C41.8048 41.0459 40.1855 42.7017 38.0024 42.7017C35.8193 42.7017 34.2 41.0459 34.2 38.9023V38.8136C34.2 36.6701 35.8193 35.0143 38.0024 35.0143C40.1855 35.0143 41.8048 36.6701 41.8048 38.8136V38.9023ZM53.2048 38.9023C53.2048 41.0459 51.5855 42.7017 49.4024 42.7017C47.2193 42.7017 45.6 41.0459 45.6 38.9023V38.8136C45.6 36.6701 47.2193 35.0143 49.4024 35.0143C51.5855 35.0143 53.2048 36.6701 53.2048 38.8136V38.9023Z" fill="white"/>
</svg>
