<svg width="51" height="50" viewBox="0 0 51 50" fill="none" xmlns="http://www.w3.org/2000/svg">
<path d="M25.4931 16.6631C20.8108 16.6631 16.9897 20.4094 16.9897 25C16.9897 29.5906 20.8108 33.3369 25.4931 33.3369C30.1755 33.3369 33.9966 29.5906 33.9966 25C33.9966 20.4094 30.1755 16.6631 25.4931 16.6631ZM50.9972 25C50.9972 21.5477 51.0291 18.1266 50.8313 14.6805C50.6335 10.6778 49.7022 7.12542 46.7167 4.19845C43.7249 1.26521 40.1079 0.358351 36.0252 0.16447C32.5039 -0.0294109 29.0145 0.00186028 25.4995 0.00186028C21.9782 0.00186028 18.4888 -0.0294109 14.9739 0.16447C10.8912 0.358351 7.2678 1.27147 4.28234 4.19845C1.29049 7.13168 0.365511 10.6778 0.167756 14.6805C-0.0299986 18.1329 0.00189745 21.5539 0.00189745 25C0.00189745 28.4461 -0.0299986 31.8734 0.167756 35.3195C0.365511 39.3222 1.29687 42.8746 4.28234 45.8016C7.27418 48.7348 10.8912 49.6416 14.9739 49.8355C18.4952 50.0294 21.9846 49.9981 25.4995 49.9981C29.0208 49.9981 32.5103 50.0294 36.0252 49.8355C40.1079 49.6416 43.7313 48.7285 46.7167 45.8016C49.7086 42.8683 50.6335 39.3222 50.8313 35.3195C51.0354 31.8734 50.9972 28.4523 50.9972 25ZM25.4931 37.8274C18.2528 37.8274 12.4094 32.0985 12.4094 25C12.4094 17.9015 18.2528 12.1726 25.4931 12.1726C32.7335 12.1726 38.5769 17.9015 38.5769 25C38.5769 32.0985 32.7335 37.8274 25.4931 37.8274ZM39.1127 14.643C37.4222 14.643 36.0571 13.3046 36.0571 11.6472C36.0571 9.98986 37.4222 8.65145 39.1127 8.65145C40.8032 8.65145 42.1684 9.98986 42.1684 11.6472C42.1689 12.0408 42.0902 12.4306 41.9368 12.7942C41.7834 13.1579 41.5583 13.4884 41.2745 13.7667C40.9907 14.0449 40.6536 14.2656 40.2827 14.416C39.9117 14.5663 39.5141 14.6435 39.1127 14.643Z" fill="white"/>
</svg>
